<svg width="136" height="64" viewBox="0 0 136 64" fill="none" xmlns="http://www.w3.org/2000/svg">
<path d="M21.8052 32.4369C28.6693 32.4369 34.2338 28.5814 34.2338 21.7173C34.2338 16.5014 31.0207 12.0359 26.4659 10.1921V15.3476C26.4659 18.6101 17.1445 18.6101 17.1445 15.3476V10.1669C12.5345 11.9666 9.3766 16.4438 9.3766 21.7173C9.3766 25.6422 11.1959 27.4333 14.0373 29.711C15.7462 31.2718 15.5909 39.9539 14.0373 39.3287C6.38744 36.2501 0.987305 30.4688 0.987305 21.7173C0.987305 10.2199 10.3078 0.899414 21.8052 0.899414C33.3026 0.899414 42.6231 10.2199 42.6231 21.7173C42.6231 31.6124 35.7194 38.1861 26.4659 40.3025V45.1762H34.2338C35.7873 45.1762 35.7873 51.4682 34.2338 51.4682H26.4659V61.8771C26.4659 63.5084 18.698 63.5084 18.698 61.8771V51.4682H10.9302C9.3766 51.4682 9.3766 45.1762 10.9302 45.1762H18.698V40.3025V33.8352C18.698 33.1361 18.9311 32.1398 19.8632 32.2861C20.496 32.3854 21.1446 32.4369 21.8052 32.4369Z" fill="#FF6B6B"/>
<path d="M64.9497 12.4207V28.8355H62.3383V17.656L62.4627 15.5544L61.9652 17.9172L58.3714 27.7909H55.7973L52.2159 17.9172L51.7185 15.5544L51.8428 17.656V28.8355H49.2314V12.4207H52.8003L56.904 24.7069L57.0906 25.6893L57.2647 24.7069L61.3932 12.4207H64.9497ZM70.065 24.3587C70.0816 24.8976 70.2101 25.3826 70.4505 25.8137C70.6909 26.2448 71.0432 26.5847 71.5075 26.8334C71.98 27.0738 72.5562 27.194 73.236 27.194C73.8246 27.194 74.3303 27.1152 74.7531 26.9577C75.1842 26.7919 75.5407 26.5971 75.8226 26.3733C76.1045 26.1411 76.3117 25.9256 76.4444 25.7266L77.6257 27.3308C77.3687 27.679 77.0454 27.9899 76.6558 28.2635C76.2661 28.537 75.7811 28.7484 75.2008 28.8977C74.6288 29.0552 73.92 29.1339 73.0744 29.1339C71.9635 29.1339 70.9976 28.9059 70.1769 28.45C69.3562 27.994 68.7178 27.3515 68.2618 26.5225C67.8142 25.6935 67.5903 24.7235 67.5903 23.6126C67.5903 22.6178 67.7976 21.7224 68.2121 20.9265C68.6266 20.1224 69.2277 19.4882 70.0152 19.0239C70.8111 18.5597 71.7645 18.3275 72.8754 18.3275C73.9117 18.3275 74.8112 18.5348 75.5739 18.9493C76.3366 19.3638 76.9252 19.9607 77.3397 20.74C77.7625 21.511 77.9739 22.4437 77.9739 23.538C77.9739 23.6043 77.9698 23.7411 77.9615 23.9484C77.9615 24.1556 77.9532 24.2924 77.9366 24.3587H70.065ZM75.4868 22.4188C75.4785 22.1535 75.3873 21.8509 75.2132 21.511C75.0474 21.1711 74.778 20.8768 74.4049 20.6281C74.0319 20.3711 73.5345 20.2426 72.9127 20.2426C72.2743 20.2426 71.7562 20.367 71.3583 20.6157C70.9603 20.8561 70.666 21.1462 70.4753 21.4861C70.2847 21.8178 70.1728 22.1286 70.1396 22.4188H75.4868ZM86.341 18.3275C87.0291 18.3275 87.6965 18.4685 88.3431 18.7503C88.9898 19.0322 89.5203 19.484 89.9348 20.1058C90.3577 20.7193 90.5691 21.5193 90.5691 22.5058V28.8355H87.8954V22.9908C87.8954 22.0706 87.6757 21.3949 87.2364 20.9639C86.8053 20.5245 86.2457 20.3048 85.5576 20.3048C85.1016 20.3048 84.6664 20.4333 84.2519 20.6903C83.8373 20.9473 83.4974 21.2955 83.2322 21.7349C82.9752 22.1742 82.8467 22.6799 82.8467 23.252V28.8355H80.1855V18.626H82.8467V20.3421C82.9213 20.0602 83.1202 19.7659 83.4436 19.4592C83.7752 19.1441 84.1938 18.8788 84.6995 18.6633C85.2052 18.4395 85.7524 18.3275 86.341 18.3275ZM93.4282 28.8355V18.626H96.077V28.8355H93.4282ZM94.7837 15.5669C94.336 15.5669 93.9505 15.4052 93.6272 15.0819C93.3122 14.7586 93.1546 14.3731 93.1546 13.9254C93.1546 13.4777 93.3122 13.0922 93.6272 12.7689C93.9505 12.4373 94.336 12.2715 94.7837 12.2715C95.0821 12.2715 95.3557 12.3502 95.6044 12.5078C95.8614 12.657 96.0645 12.856 96.2138 13.1047C96.3713 13.3451 96.45 13.6187 96.45 13.9254C96.45 14.3731 96.2884 14.7586 95.9651 15.0819C95.6417 15.4052 95.2479 15.5669 94.7837 15.5669ZM105.286 18.3275C105.974 18.3275 106.641 18.4685 107.288 18.7503C107.934 19.0322 108.465 19.484 108.879 20.1058C109.302 20.7193 109.514 21.5193 109.514 22.5058V28.8355H106.84V22.9908C106.84 22.0706 106.62 21.3949 106.181 20.9639C105.75 20.5245 105.19 20.3048 104.502 20.3048C104.046 20.3048 103.611 20.4333 103.196 20.6903C102.782 20.9473 102.442 21.2955 102.177 21.7349C101.92 22.1742 101.791 22.6799 101.791 23.252V28.8355H99.1301V18.626H101.791V20.3421C101.866 20.0602 102.065 19.7659 102.388 19.4592C102.72 19.1441 103.138 18.8788 103.644 18.6633C104.15 18.4395 104.697 18.3275 105.286 18.3275ZM120.282 28.8355V26.9453C120.215 27.1443 120.025 27.4178 119.71 27.766C119.403 28.1142 118.98 28.4293 118.441 28.7111C117.911 28.993 117.281 29.1339 116.551 29.1339C115.598 29.1339 114.74 28.9059 113.977 28.45C113.214 27.994 112.613 27.3598 112.174 26.5474C111.734 25.7349 111.515 24.7981 111.515 23.737C111.515 22.6758 111.734 21.739 112.174 20.9265C112.613 20.1141 113.214 19.4799 113.977 19.0239C114.74 18.5597 115.598 18.3275 116.551 18.3275C117.264 18.3275 117.882 18.4519 118.404 18.7006C118.926 18.9493 119.345 19.2353 119.66 19.5587C119.983 19.882 120.182 20.1638 120.257 20.4043V18.626H122.893V28.8355H120.282ZM114.139 23.737C114.139 24.3919 114.284 24.9639 114.574 25.453C114.864 25.9422 115.241 26.3194 115.706 26.5847C116.178 26.85 116.684 26.9826 117.223 26.9826C117.803 26.9826 118.317 26.8458 118.765 26.5722C119.221 26.2987 119.577 25.9214 119.834 25.4406C120.099 24.9515 120.232 24.3836 120.232 23.737C120.232 23.0903 120.099 22.5266 119.834 22.0457C119.577 21.5566 119.221 21.1753 118.765 20.9017C118.317 20.6198 117.803 20.4789 117.223 20.4789C116.684 20.4789 116.178 20.6157 115.706 20.8892C115.241 21.1545 114.864 21.5317 114.574 22.0209C114.284 22.51 114.139 23.082 114.139 23.737ZM129.683 18.3275C130.255 18.3275 130.786 18.3814 131.275 18.4892C131.764 18.597 132.183 18.7255 132.531 18.8747C132.879 19.0239 133.12 19.1483 133.252 19.2478L132.282 20.8892C132.117 20.7483 131.818 20.5866 131.387 20.4043C130.964 20.2219 130.487 20.1307 129.957 20.1307C129.426 20.1307 128.979 20.226 128.614 20.4167C128.249 20.6074 128.067 20.8934 128.067 21.2747C128.067 21.6478 128.257 21.9463 128.639 22.1701C129.028 22.3939 129.555 22.5805 130.218 22.7297C130.765 22.854 131.287 23.0281 131.785 23.252C132.282 23.4675 132.689 23.7784 133.004 24.1846C133.327 24.5826 133.489 25.1173 133.489 25.7888C133.489 26.4272 133.352 26.9619 133.078 27.393C132.813 27.8158 132.456 28.1557 132.009 28.4127C131.561 28.6697 131.064 28.8521 130.516 28.9598C129.978 29.0759 129.435 29.1339 128.887 29.1339C128.216 29.1339 127.615 29.0676 127.084 28.935C126.562 28.8023 126.127 28.6489 125.779 28.4749C125.43 28.2925 125.182 28.1391 125.032 28.0147L126.002 26.1743C126.218 26.3816 126.57 26.6012 127.059 26.8334C127.549 27.0572 128.096 27.1691 128.701 27.1691C129.348 27.1691 129.866 27.0448 130.255 26.7961C130.645 26.5474 130.84 26.2157 130.84 25.8012C130.84 25.4945 130.744 25.2458 130.554 25.0551C130.371 24.8644 130.119 24.7111 129.795 24.595C129.472 24.4789 129.111 24.3753 128.713 24.2841C128.34 24.1929 127.963 24.0769 127.582 23.9359C127.209 23.7867 126.865 23.596 126.55 23.3639C126.235 23.1235 125.982 22.825 125.791 22.4685C125.6 22.1121 125.505 21.6934 125.505 21.2126C125.505 20.5991 125.7 20.0768 126.089 19.6457C126.479 19.2146 126.993 18.8871 127.631 18.6633C128.27 18.4395 128.954 18.3275 129.683 18.3275Z" fill="#393939"/>
<path d="M51.3731 49.719C50.8057 49.719 50.3044 49.5845 49.869 49.3155C49.4337 49.0464 49.0913 48.6722 48.8418 48.1929C48.5972 47.7135 48.4749 47.1608 48.4749 46.5347C48.4749 45.9086 48.5972 45.3558 48.8418 44.8765C49.0913 44.3971 49.4337 44.0229 49.869 43.7539C50.3044 43.4799 50.8057 43.343 51.3731 43.343C51.7938 43.343 52.168 43.4164 52.4957 43.5631C52.8235 43.705 53.0852 43.8713 53.2808 44.062C53.4765 44.2528 53.5914 44.4216 53.6257 44.5683V39.4469H55.1958V49.5429H53.6477V48.4277C53.5792 48.5989 53.4398 48.7848 53.2295 48.9853C53.0191 49.1859 52.7525 49.3595 52.4297 49.5062C52.1118 49.6481 51.7596 49.719 51.3731 49.719ZM51.7767 48.4497C52.1191 48.4497 52.4297 48.369 52.7085 48.2076C52.9873 48.0461 53.2099 47.8236 53.3762 47.5399C53.5425 47.2513 53.6257 46.9162 53.6257 46.5347C53.6257 46.1531 53.5425 45.8205 53.3762 45.5368C53.2099 45.2482 52.9873 45.0232 52.7085 44.8618C52.4297 44.6955 52.1191 44.6123 51.7767 44.6123C51.4636 44.6123 51.1726 44.693 50.9036 44.8545C50.6394 45.011 50.4266 45.2335 50.2652 45.5221C50.1038 45.8107 50.0231 46.1482 50.0231 46.5347C50.0231 46.9211 50.1038 47.2586 50.2652 47.5472C50.4266 47.8358 50.6394 48.0584 50.9036 48.2149C51.1726 48.3714 51.4636 48.4497 51.7767 48.4497ZM57.6564 46.9015C57.6662 47.2195 57.742 47.5056 57.8839 47.76C58.0257 48.0143 58.2336 48.2149 58.5075 48.3616C58.7864 48.5035 59.1263 48.5744 59.5274 48.5744C59.8747 48.5744 60.1731 48.5279 60.4226 48.435C60.6769 48.3372 60.8873 48.2222 61.0536 48.0902C61.2199 47.9532 61.3422 47.826 61.4204 47.7086L62.1175 48.6551C61.9658 48.8606 61.7751 49.044 61.5452 49.2054C61.3153 49.3668 61.0291 49.4916 60.6867 49.5796C60.3492 49.6726 59.931 49.719 59.432 49.719C58.7766 49.719 58.2067 49.5845 57.7225 49.3155C57.2382 49.0464 56.8616 48.6674 56.5925 48.1782C56.3284 47.6891 56.1963 47.1168 56.1963 46.4613C56.1963 45.8743 56.3186 45.346 56.5632 44.8765C56.8078 44.402 57.1624 44.0278 57.6271 43.7539C58.0967 43.4799 58.6592 43.343 59.3146 43.343C59.9261 43.343 60.4568 43.4653 60.9068 43.7098C61.3568 43.9544 61.7041 44.3066 61.9487 44.7664C62.1982 45.2213 62.3229 45.7716 62.3229 46.4173C62.3229 46.4564 62.3205 46.5371 62.3156 46.6594C62.3156 46.7817 62.3107 46.8624 62.3009 46.9015H57.6564ZM60.8555 45.7569C60.8506 45.6004 60.7968 45.4219 60.694 45.2213C60.5962 45.0208 60.4372 44.8471 60.2171 44.7004C59.997 44.5487 59.7035 44.4729 59.3367 44.4729C58.96 44.4729 58.6543 44.5463 58.4195 44.693C58.1847 44.8349 58.0111 45.0061 57.8986 45.2066C57.7861 45.4023 57.72 45.5857 57.7005 45.7569H60.8555Z" fill="#393939"/>
<path d="M67.7962 35.3128H76.6378V37.6507H70.4077V42.3388H76.2026V44.6643H70.4077V51.7276H67.7962V35.3128ZM81.746 46.5296C81.746 47.5244 81.9492 48.3161 82.3554 48.9047C82.7699 49.4934 83.4207 49.7877 84.3077 49.7877C85.2031 49.7877 85.8539 49.4934 86.2601 48.9047C86.6663 48.3161 86.8694 47.5244 86.8694 46.5296V41.5181H89.5057V46.8653C89.5057 47.8933 89.3026 48.797 88.8964 49.5763C88.4902 50.3473 87.9016 50.9483 87.1306 51.3794C86.3596 51.8105 85.4186 52.026 84.3077 52.026C83.2051 52.026 82.2683 51.8105 81.4973 51.3794C80.7263 50.9483 80.1377 50.3473 79.7315 49.5763C79.3253 48.797 79.1222 47.8933 79.1222 46.8653V41.5181H81.746V46.5296ZM91.2972 41.5181H93.2123V37.3274H95.8486V41.5181H98.373V43.7565H95.8486V48.1213C95.8486 48.6685 95.9398 49.0788 96.1222 49.3524C96.3128 49.626 96.5823 49.7628 96.9305 49.7628C97.2206 49.7628 97.4486 49.7089 97.6144 49.6011C97.7885 49.4934 97.8921 49.4187 97.9253 49.3773L98.9077 51.3048C98.858 51.3545 98.7129 51.4374 98.4725 51.5535C98.232 51.6696 97.9212 51.7773 97.5398 51.8768C97.1585 51.9763 96.7232 52.026 96.2341 52.026C95.3719 52.026 94.6506 51.769 94.0703 51.255C93.4983 50.741 93.2123 49.9369 93.2123 48.8426V43.7565H91.2972V41.5181ZM103.144 46.5296C103.144 47.5244 103.347 48.3161 103.753 48.9047C104.168 49.4934 104.818 49.7877 105.705 49.7877C106.601 49.7877 107.252 49.4934 107.658 48.9047C108.064 48.3161 108.267 47.5244 108.267 46.5296V41.5181H110.903V46.8653C110.903 47.8933 110.7 48.797 110.294 49.5763C109.888 50.3473 109.299 50.9483 108.528 51.3794C107.757 51.8105 106.816 52.026 105.705 52.026C104.603 52.026 103.666 51.8105 102.895 51.3794C102.124 50.9483 101.535 50.3473 101.129 49.5763C100.723 48.797 100.52 47.8933 100.52 46.8653V41.5181H103.144V46.5296ZM116.187 51.7276H113.538V41.5181H116.187V43.2218H116.125C116.183 43.0145 116.34 42.7575 116.597 42.4508C116.863 42.1357 117.227 41.8539 117.692 41.6051C118.156 41.3481 118.715 41.2196 119.37 41.2196C119.843 41.2196 120.266 41.286 120.639 41.4186C121.012 41.5513 121.277 41.6839 121.435 41.8165L120.365 44.0052C120.257 43.8725 120.054 43.744 119.756 43.6197C119.466 43.487 119.105 43.4207 118.674 43.4207C118.135 43.4207 117.679 43.5782 117.306 43.8933C116.941 44.2083 116.664 44.5855 116.473 45.0249C116.282 45.4643 116.187 45.8746 116.187 46.256V51.7276ZM127.341 52.026C126.272 52.026 125.318 51.7939 124.481 51.3297C123.652 50.8571 123.001 50.2188 122.529 49.4146C122.056 48.6021 121.82 47.6819 121.82 46.6539C121.82 45.6259 122.056 44.7016 122.529 43.8808C123.001 43.0601 123.652 42.4135 124.481 41.9409C125.318 41.4601 126.272 41.2196 127.341 41.2196C128.411 41.2196 129.356 41.4601 130.177 41.9409C130.997 42.4135 131.64 43.0601 132.104 43.8808C132.577 44.7016 132.813 45.6259 132.813 46.6539C132.813 47.6819 132.577 48.6021 132.104 49.4146C131.64 50.2188 130.997 50.8571 130.177 51.3297C129.356 51.7939 128.411 52.026 127.341 52.026ZM127.341 49.7877C127.938 49.7877 128.456 49.6509 128.896 49.3773C129.335 49.1037 129.675 48.7306 129.915 48.2581C130.156 47.7856 130.276 47.2467 130.276 46.6415C130.276 46.0363 130.156 45.4974 129.915 45.0249C129.675 44.5441 129.335 44.1627 128.896 43.8808C128.456 43.599 127.938 43.458 127.341 43.458C126.744 43.458 126.222 43.599 125.774 43.8808C125.335 44.1627 124.991 44.5441 124.742 45.0249C124.502 45.4974 124.382 46.0363 124.382 46.6415C124.382 47.2467 124.502 47.7856 124.742 48.2581C124.991 48.7306 125.335 49.1037 125.774 49.3773C126.222 49.6509 126.744 49.7877 127.341 49.7877Z" fill="#FF6B6B"/>
</svg>
